<?xml version="1.0" encoding="UTF-8"?>
<svg id="Layer_2" data-name="Layer 2" xmlns="http://www.w3.org/2000/svg" viewBox="0 0 969.47 605.74">
  <defs>
    <style>
      .cls-1 {
        fill: #a8432a;
      }

      .cls-2 {
        fill: #c6762d;
      }

      .cls-3 {
        fill: #d65313;
      }

      .cls-4 {
        fill: #edd8b9;
      }
    </style>
  </defs>
  <g id="Layer_1-2" data-name="Layer 1">
    <path class="cls-4" d="M474.3,185.34c0-6.87-6.75-11.64-13.26-9.46-49.47,16.6-85.06,63.73-84.25,118.91.98,67.79,57.33,122.53,125.12,121.62,31.93-.43,60.96-13.04,82.66-33.39,6.38-5.97,16.82-1.43,16.82,7.31v64.3c0,5.51-4.46,9.97-9.96,9.97-19.35,0-62.59,0-91.2,0-94.65,0-171.65-77-171.65-171.65s77-171.64,171.65-171.64c4.42,0,8.8.17,13.14.5,5.18.4,9.16,4.77,9.16,9.97v39.74s-.03-.01-.05-.01v59.31c0,5.52,4.48,10,10,10h127.67v48.19h-127.67c-5.52,0-10,4.48-10,10v66.48c0,5.52-4.48,10-10,10h-28.18c-5.52,0-10-4.48-10-10v-180.16Z"/>
    <path class="cls-3" d="M749.05,57.74c-.06-.36-.38-.91-.37-1.35.32.44.37.85.37,1.35Z"/>
    <path class="cls-2" d="M204.06,287.74C206.1,133.35,328.7,7.53,481.81.33V.08C328.62,7.28,205.97,133.24,204.06,287.74Z"/>
    <path class="cls-1" d="M264.06,288.52c1.61-121.66,97.48-220.97,217.75-228.11v-.25c-120.35,7.15-216.26,106.6-217.75,228.36Z"/>
    <path class="cls-2" d="M639.13,10v28.19c0,5.53-4.47,10-10,10h-133.45c-133.15,0-241.67,107.44-243.43,240.18,0,1.09-.02,2.18-.02,3.27.06,58.85,21.1,112.88,56.05,154.99,5.42,6.53.81,16.41-7.67,16.41h-35.44c-3.28,0-6.33-1.61-8.22-4.29-33.29-47.34-52.86-104.98-52.91-167.11,0-1.3.01-2.6.02-3.9C206.1,133.35,328.7,7.53,481.81.33c4.6-.22,9.22-.33,13.87-.33h133.45c5.53,0,10,4.48,10,10Z"/>
    <path class="cls-1" d="M639.13,70v28.19c0,5.53-4.48,10-10,10h-133.45c-101.08,0-183.32,82.16-183.45,183.21v.24c.08,63.88,32.99,120.23,82.75,153.03,8.3,5.47,4.48,18.37-5.47,18.37h-45.31c-2.51,0-4.94-.93-6.78-2.65-45.09-42.24-73.31-102.26-73.38-168.75,0-1.04.01-2.08.02-3.12,1.61-121.66,97.48-220.97,217.75-228.11,4.59-.27,9.21-.41,13.87-.41h133.45c5.53,0,10,4.48,10,10Z"/>
    <path class="cls-2" d="M727.25,463.14c-5.51,0-9.99-4.46-10.01-9.97l-1.41-408.96c0-1.67,1.93-2.62,3.24-1.59,12.14,9.58,23.93,19.58,35.34,29.98,6.23,5.68,9.83,13.67,9.87,22.1l1.15,358.39c.02,5.53-4.46,10.02-9.99,10.03l-28.19.02Z"/>
    <path class="cls-1" d="M667.25,463.17c-5.51,0-9.99-4.46-10-9.97l-1.63-451.18c0-1.57,1.72-2.54,3.06-1.72,11.11,6.87,21.99,14.07,32.64,21.59,7.93,5.6,12.67,14.67,12.72,24.38l1.4,406.86c.02,5.53-4.46,10.03-10,10.03h-28.19Z"/>
    <path class="cls-2" d="M878.21,594.19c0-1.67-5.46-3.02-12.21-3.03l-762.46-.42c-6.78,0-12.29,1.35-12.29,3.03v8.61c0,1.67,5.46,3.02,12.22,3.03l762.43.34c6.78,0,12.28-1.35,12.28-3.02l.02-8.53Z"/>
    <path class="cls-1" d="M969.47,568.83c0-1.66-6.35-3.01-14.2-3.01l-940.97-.48C6.41,565.33,0,566.68,0,568.35v8.56c0,1.66,6.35,3.01,14.2,3.01l940.96.41c7.88,0,14.29-1.34,14.29-3.01l.02-8.49Z"/>
    <g>
      <path class="cls-4" d="M45.3,539.25c-2.36,2.22-5.01,3.92-7.94,5.1-2.93,1.18-5.97,1.78-9.11,1.78-2.41,0-4.73-.34-6.96-1.02-2.23-.68-4.33-1.65-6.27-2.9-1.95-1.25-3.73-2.75-5.33-4.5-1.61-1.75-2.98-3.69-4.13-5.81-1.15-2.12-2.03-4.4-2.66-6.84s-.94-4.96-.94-7.59.31-5.16.94-7.61,1.51-4.73,2.66-6.86c1.15-2.12,2.52-4.06,4.13-5.81s3.38-3.25,5.33-4.5c1.95-1.25,4.04-2.21,6.27-2.9,2.23-.68,4.55-1.03,6.96-1.03,3.14,0,6.18.59,9.11,1.76,2.93,1.17,5.58,2.88,7.94,5.12l-5.39,9.66c-1.49-1.75-3.25-3.1-5.28-4.04-2.03-.94-4.16-1.41-6.38-1.41s-4.35.46-6.31,1.39c-1.96.93-3.67,2.18-5.14,3.77-1.47,1.58-2.62,3.45-3.47,5.6s-1.28,4.44-1.28,6.86.43,4.69,1.28,6.82,2.01,3.99,3.47,5.58c1.46,1.6,3.18,2.86,5.14,3.79,1.96.93,4.06,1.39,6.31,1.39s4.35-.47,6.38-1.41c2.03-.94,3.79-2.29,5.28-4.04l5.39,9.66Z"/>
      <path class="cls-4" d="M69.64,544.93h-10.17v-55.4h10.17v22.18h20.31v-22.18h10.17v55.4h-10.17v-22.14h-20.31v22.14Z"/>
      <path class="cls-4" d="M128,544.93h-10.17v-55.4h20.35c1.87,0,3.66.26,5.39.79,1.72.53,3.34,1.27,4.84,2.24,1.5.96,2.87,2.12,4.11,3.48,1.24,1.35,2.3,2.85,3.19,4.5.89,1.65,1.57,3.41,2.06,5.29.48,1.88.73,3.84.73,5.87,0,1.91-.22,3.76-.66,5.56s-1.06,3.52-1.88,5.14-1.81,3.12-3,4.48c-1.18,1.37-2.51,2.55-3.97,3.55l5.64,14.49h-10.81l-4.43-11.17-11.38.08v11.09ZM128,500.62v22.18h10.17c1.39,0,2.71-.29,3.93-.87,1.23-.58,2.3-1.37,3.23-2.38s1.65-2.18,2.18-3.54.8-2.79.8-4.31-.27-2.96-.8-4.31c-.53-1.35-1.26-2.53-2.18-3.54s-2-1.8-3.23-2.38c-1.23-.58-2.54-.87-3.93-.87h-10.17Z"/>
      <path class="cls-4" d="M183.6,544.93h-10.17v-55.4h10.17v55.4Z"/>
      <path class="cls-4" d="M198.32,506.14c0-2.29.4-4.44,1.21-6.45.8-2.01,1.9-3.77,3.28-5.27,1.38-1.51,3-2.7,4.84-3.57,1.84-.88,3.82-1.31,5.92-1.31h23.32v11.09h-23.32c-.71,0-1.37.14-1.99.43s-1.15.68-1.61,1.18-.82,1.09-1.08,1.76c-.26.67-.39,1.39-.39,2.16s.13,1.5.39,2.18c.26.68.62,1.27,1.08,1.78.46.5,1,.89,1.61,1.18s1.28.42,1.99.42h10.17c2.1,0,4.08.43,5.94,1.29,1.85.86,3.47,2.05,4.86,3.55,1.38,1.51,2.47,3.27,3.26,5.29s1.19,4.18,1.19,6.47-.4,4.44-1.19,6.45c-.79,2.01-1.88,3.77-3.26,5.27-1.38,1.51-3,2.7-4.86,3.57-1.86.88-3.83,1.31-5.94,1.31h-22.58v-11.09h22.58c.71,0,1.37-.14,1.99-.43.61-.28,1.15-.68,1.61-1.18.46-.5.82-1.09,1.08-1.76s.39-1.39.39-2.16-.13-1.49-.39-2.16-.62-1.26-1.08-1.76c-.46-.5-1-.9-1.61-1.18-.62-.28-1.28-.42-1.99-.42h-10.17c-2.1,0-4.08-.44-5.92-1.31-1.84-.88-3.46-2.07-4.84-3.57-1.38-1.51-2.48-3.27-3.28-5.29-.8-2.02-1.21-4.18-1.21-6.47Z"/>
      <path class="cls-4" d="M274.55,544.93h-10.14v-44.31h-15.28v-11.09h40.66v11.09h-15.24v44.31Z"/>
      <path class="cls-4" d="M313.63,544.93h-10.17v-55.4h10.17v55.4Z"/>
      <path class="cls-4" d="M371.42,544.93h-10.17v-11.09h-20.35v11.09h-10.14v-33.23c0-3.06.53-5.94,1.59-8.63,1.06-2.69,2.51-5.04,4.34-7.05,1.83-2.01,3.98-3.59,6.45-4.75,2.47-1.16,5.11-1.74,7.92-1.74s5.45.58,7.92,1.74c2.47,1.16,4.63,2.74,6.47,4.75,1.84,2.01,3.3,4.36,4.36,7.05,1.06,2.69,1.6,5.57,1.6,8.63v33.23ZM361.25,522.8v-11.09c0-1.52-.27-2.96-.8-4.31-.53-1.35-1.26-2.53-2.18-3.54-.92-1-2-1.8-3.24-2.38-1.24-.58-2.56-.87-3.95-.87s-2.71.29-3.95.87c-1.24.58-2.32,1.37-3.24,2.38s-1.65,2.18-2.18,3.54c-.53,1.35-.8,2.79-.8,4.31v11.09h20.35Z"/>
      <path class="cls-4" d="M429.18,544.93h-10.88l-19.6-36.47v36.47h-10.17v-55.4h10.88l19.6,36.51v-36.51h10.17v55.4Z"/>
      <path class="cls-4" d="M485.65,544.93h-10.17v-55.4h10.17v22.18h20.31v-22.18h10.17v55.4h-10.17v-22.14h-20.31v22.14Z"/>
      <path class="cls-4" d="M568.68,544.93h-34.84v-55.4h34.84v11.09h-24.67v11.09h16.7v11.09h-16.7v11.05h24.67v11.09Z"/>
      <path class="cls-4" d="M594.25,544.93h-10.17v-55.4h20.35c1.87,0,3.66.26,5.39.79,1.73.53,3.34,1.27,4.84,2.24,1.5.96,2.87,2.12,4.11,3.48,1.24,1.35,2.3,2.85,3.19,4.5.89,1.65,1.57,3.41,2.06,5.29.48,1.88.73,3.84.73,5.87,0,1.91-.22,3.76-.66,5.56s-1.06,3.52-1.88,5.14c-.81,1.62-1.81,3.12-3,4.48-1.18,1.37-2.5,2.55-3.97,3.55l5.64,14.49h-10.81l-4.43-11.17-11.38.08v11.09ZM594.25,500.62v22.18h10.17c1.39,0,2.71-.29,3.93-.87,1.23-.58,2.3-1.37,3.23-2.38.92-1,1.65-2.18,2.18-3.54.53-1.35.8-2.79.8-4.31s-.27-2.96-.8-4.31c-.53-1.35-1.26-2.53-2.18-3.54-.92-1-2-1.8-3.23-2.38-1.23-.58-2.54-.87-3.93-.87h-10.17Z"/>
      <path class="cls-4" d="M690.12,544.93h-10.14v-39.56c0-.77-.14-1.49-.41-2.16s-.64-1.26-1.1-1.76c-.46-.5-1-.9-1.61-1.18-.62-.28-1.28-.42-1.99-.42s-1.37.14-1.99.42c-.61.28-1.15.68-1.61,1.18-.46.5-.82,1.09-1.08,1.76s-.39,1.39-.39,2.16v39.56h-10.17v-39.56c0-.77-.13-1.49-.39-2.16s-.62-1.26-1.08-1.76c-.46-.5-1-.9-1.61-1.18-.62-.28-1.28-.42-1.99-.42s-1.37.14-1.99.42-1.15.68-1.61,1.18c-.46.5-.82,1.09-1.08,1.76-.26.67-.39,1.39-.39,2.16v39.56h-10.17v-39.56c0-2.29.4-4.45,1.19-6.47s1.88-3.79,3.26-5.29c1.38-1.51,3-2.69,4.86-3.55,1.85-.86,3.83-1.29,5.94-1.29,1.89,0,3.71.37,5.46,1.1,1.75.73,3.32,1.8,4.71,3.19,1.39-1.39,2.96-2.45,4.7-3.19,1.74-.73,3.55-1.1,5.44-1.1,2.1,0,4.08.43,5.94,1.29,1.85.86,3.47,2.05,4.86,3.55,1.38,1.51,2.47,3.27,3.26,5.29s1.19,4.18,1.19,6.47v39.56Z"/>
      <path class="cls-4" d="M747.56,544.93h-10.17v-11.09h-20.35v11.09h-10.14v-33.23c0-3.06.53-5.94,1.59-8.63,1.06-2.69,2.51-5.04,4.34-7.05,1.83-2.01,3.98-3.59,6.45-4.75,2.47-1.16,5.11-1.74,7.92-1.74s5.45.58,7.92,1.74c2.47,1.16,4.62,2.74,6.47,4.75,1.84,2.01,3.3,4.36,4.36,7.05,1.06,2.69,1.6,5.57,1.6,8.63v33.23ZM737.38,522.8v-11.09c0-1.52-.27-2.96-.8-4.31-.53-1.35-1.26-2.53-2.18-3.54-.92-1-2-1.8-3.24-2.38-1.24-.58-2.56-.87-3.95-.87s-2.71.29-3.95.87c-1.24.58-2.32,1.37-3.24,2.38-.92,1-1.65,2.18-2.18,3.54-.53,1.35-.8,2.79-.8,4.31v11.09h20.35Z"/>
      <path class="cls-4" d="M805.32,544.93h-10.88l-19.6-36.47v36.47h-10.17v-55.4h10.88l19.6,36.51v-36.51h10.17v55.4Z"/>
      <path class="cls-4" d="M820.04,506.14c0-2.29.4-4.44,1.21-6.45.8-2.01,1.9-3.77,3.28-5.27,1.38-1.51,3-2.7,4.84-3.57,1.84-.88,3.82-1.31,5.92-1.31h23.32v11.09h-23.32c-.71,0-1.37.14-1.99.43-.62.28-1.15.68-1.61,1.18s-.82,1.09-1.08,1.76-.39,1.39-.39,2.16.13,1.5.39,2.18c.26.68.62,1.27,1.08,1.78.46.5,1,.89,1.61,1.18.61.28,1.28.42,1.99.42h10.17c2.1,0,4.08.43,5.94,1.29s3.47,2.05,4.86,3.55c1.38,1.51,2.47,3.27,3.26,5.29.79,2.02,1.19,4.18,1.19,6.47s-.4,4.44-1.19,6.45c-.79,2.01-1.88,3.77-3.26,5.27-1.38,1.51-3,2.7-4.86,3.57s-3.83,1.31-5.94,1.31h-22.58v-11.09h22.58c.71,0,1.37-.14,1.98-.43.61-.28,1.15-.68,1.61-1.18s.82-1.09,1.08-1.76c.26-.67.39-1.39.39-2.16s-.13-1.49-.39-2.16c-.26-.67-.62-1.26-1.08-1.76-.46-.5-1-.9-1.61-1.18s-1.28-.42-1.98-.42h-10.17c-2.1,0-4.08-.44-5.92-1.31-1.84-.88-3.46-2.07-4.84-3.57-1.38-1.51-2.48-3.27-3.28-5.29-.8-2.02-1.21-4.18-1.21-6.47Z"/>
      <path class="cls-4" d="M910.48,544.93h-34.84v-55.4h34.84v11.09h-24.67v11.09h16.7v11.09h-16.7v11.05h24.67v11.09Z"/>
      <path class="cls-4" d="M966.54,544.93h-10.88l-19.6-36.47v36.47h-10.17v-55.4h10.88l19.6,36.51v-36.51h10.17v55.4Z"/>
    </g>
  </g>
</svg>